# xmcd
#
# Track frame offsets:
#  150
#  13599
#  24175
#  35266
#  47438
#  56986
#  70525
#  84051
#  93512
#  104746
#  114518
#  125352
#  136370
#  148761
#  162296
#  173775
#  183510
#  193547
#  205049
#  217318
#  230421
#  241242
#  252689
#  264832
#  277329
#  289307
#
# Disc length: 4028 seconds
#
# Revision: 0
# Processed by: cddbd v1.5.2PL0 Copyright (c) Steve Scherf et al.
# Submitted via: AltoMP3_Maker 3.0
#
DISCID=7e0fba1a
DTITLE=Ray Price - The Complete Singles, As n' Bs - 1950-62, CD2
DYEAR=1900
DGENRE=
TTITLE0=Leave Her Alone
TTITLE1=You Always Get By
TTITLE2=The Price for Loving You
TTITLE3=Release Me
TTITLE4=Much Too Young to Die
TTITLE5=I Love You So Much I Let You Go
TTITLE6=What If He Don't Love You
TTITLE7=I Could Love You More
TTITLE8=Oh Yes Darling
TTITLE9=If You Don't Somebody Else Will
TTITLE10=One Broken Heart
TTITLE11=I'm Alone Because I Love You
TTITLE12=Sweet Little Miss Blue Eyes
TTITLE13=Let Me Talk to You
TTITLE14=A Man Called Peter
TTITLE15=Call the Lord and He'll Be There
TTITLE16=I Can't Go Home Like This
TTITLE17=I Don't Want It on My Conscience
TTITLE18=Run Boy
TTITLE19=You Never Will Be True
TTITLE20=You Done Me Wrong
TTITLE21=Crazy Arms
TTITLE22=Wasted Words
TTITLE23=I've Got a New Heartache
TTITLE24=Please Don't Leave Me
TTITLE25=I'll Be There When You Get Lonely
EXTD=
EXTT0=
EXTT1=
EXTT2=
EXTT3=
EXTT4=
EXTT5=
EXTT6=
EXTT7=
EXTT8=
EXTT9=
EXTT10=
EXTT11=
EXTT12=
EXTT13=
EXTT14=
EXTT15=
EXTT16=
EXTT17=
EXTT18=
EXTT19=
EXTT20=
EXTT21=
EXTT22=
EXTT23=
EXTT24=
EXTT25=
PLAYORDER=
